<?xml version="1.0" encoding="utf-8"?>
<!-- Generator: Adobe Illustrator 17.0.0, SVG Export Plug-In . SVG Version: 6.00 Build 0)  -->
<!DOCTYPE svg PUBLIC "-//W3C//DTD SVG 1.1//EN" "http://www.w3.org/Graphics/SVG/1.1/DTD/svg11.dtd">
<svg version="1.1" id="Layer_1" xmlns="http://www.w3.org/2000/svg" xmlns:xlink="http://www.w3.org/1999/xlink" x="0px" y="0px" width="36px" height="36px" viewBox="0 0 192 192" enable-background="new 0 0 36 36" xml:space="preserve">
	<path d="M29.369,62.283c0-3.208-0.427-6.27,0.114-9.151c0.601-3.199,1.789-6.38,3.247-9.307c2.799-5.619,7.691-9.054,13.452-11.124
		c5.261-1.89,10.738-3.183,15.982-5.115c5.992-2.208,11.937-4.418,17.064-8.636c3.814-3.137,7.326-6.407,10.01-10.48
		c1.653-2.508,2.816-5.338,4.368-8.351c0.948-0.404,1.563,0.253,2.044,1.495c2.158,5.572,5.452,10.438,9.856,14.434
		c5.172,4.693,10.985,8.371,17.793,10.376c6.302,1.855,12.721,3.503,18.753,6.039c8.147,3.426,14.546,8.836,15.978,18.348
		c0.564,3.742,1.208,7.473,1.826,11.275c2.665,1.332,5.857,2.576,8.66,4.413c3.887,2.546,6.927,6.007,9.255,10.106
		c3.352,5.903,5.288,12.3,6.123,18.93c0.33,2.622-0.912,5.457-1.51,8.179c-1.817,8.267-6.046,15.216-12.389,20.656
		c-2.442,2.095-5.833,3.136-8.882,4.445c-1.188,0.51-1.759,0.933-1.799,2.337c-0.195,6.748-1,13.449-4.978,19.135
		c-2.632,3.762-6.337,6.635-10.632,8.272c-6.21,2.367-12.548,4.433-18.918,6.335c-5.992,1.79-11.42,4.555-16.345,8.344
		c-5.719,4.4-10.024,9.883-12.675,16.648c-0.281,0.717-1.172,1.196-1.78,1.785c-0.477-0.605-1.104-1.143-1.406-1.826
		c-1.718-3.89-3.941-7.345-6.7-10.676c-3.65-4.407-7.851-7.889-12.886-10.275c-4.372-2.071-8.962-3.774-13.597-5.173
		c-6.451-1.948-13-3.662-18.679-7.394c-5.791-3.806-9.541-9.167-10.559-16.171c-0.503-3.458-0.858-6.938-1.327-10.797
		C11.987,124.844,7.51,110.624,4,95.689c1.929-7.2,3.325-14.665,7.61-20.922C15.835,68.599,21.597,64.204,29.369,62.283z
		M156.386,125.46c4.565-0.331,8.821-1.706,12.076-4.655c2.828-2.562,5.159-5.805,7.212-9.06c3.254-5.16,5.318-11.037,4.839-17.062
		c-0.511-6.414-3.016-12.555-6.702-17.895c-4.133-5.987-9.831-9.866-17.429-10.407c-0.089-1.733-0.113-3.379-0.275-5.011
		c-0.134-1.348-0.808-2.747-0.584-4.007c0.779-4.38-0.598-8.419-2.688-11.858c-3.261-5.366-8.708-8.314-14.593-10.24
		c-5.818-1.904-11.878-3.194-17.492-5.561c-5.247-2.212-10.512-4.909-14.909-8.458c-4.031-3.254-7.913-7.106-10.182-12.091
		C95.39,8.564,94.625,8.199,94.09,7.73c-0.434,0.534-0.913,1.038-1.285,1.612c-0.277,0.428-0.301,1.052-0.632,1.407
		c-3.471,3.721-6.765,7.645-10.537,11.037c-4.567,4.107-9.978,7.07-15.846,8.903c-7.403,2.313-15.033,3.861-22.018,7.482
		c-3.393,1.759-6.105,4.294-8.156,7.232c-2.777,3.978-2.776,8.974-3.267,13.671c-0.247,2.361-0.043,4.77-0.043,7.291
		c-3.307,0.309-6.709,0.761-9.512,3.095c-1.939,1.614-4.255,2.876-5.87,4.753c-2.123,2.466-4.244,5.175-5.424,8.153
		c-1.645,4.154-2.849,8.596-3.442,13.022c-0.555,4.15,1.07,8.184,2.51,12.114c2.127,5.804,5.754,10.432,10.639,14.171
		c3.293,2.521,7.077,3.511,11.062,3.85c0,2.278-0.089,4.453,0.037,6.616c0.064,1.106,0.837,2.219,0.738,3.278
		c-0.668,7.179,2.501,12.535,8.013,16.594c5.334,3.928,11.751,5.406,17.975,7.301c4.511,1.374,9.113,2.678,13.329,4.725
		c3.875,1.881,7.508,4.446,10.849,7.195c3.857,3.174,7.202,6.938,9.637,11.397c0.295,0.541,0.756,0.992,1.14,1.485
		c0.584-0.506,1.381-0.899,1.717-1.535c2.518-4.758,6.12-8.692,10.153-12.052c6.968-5.807,15.139-9.496,23.969-11.516
		c6.566-1.502,12.789-3.703,18.335-7.567c3.5-2.438,5.882-5.905,6.647-9.985c0.897-4.79,1.003-9.729,1.451-14.603
		C156.299,126.418,156.339,125.982,156.386,125.46z" stroke="#5f6368" stroke-width="10" />
	<path d="M37.6,87.783c2.896-1.414,5.362-3.076,8.074-3.751c1.387-0.345,3.319,0.894,4.823,1.74
		c5.09,2.863,10.052,5.954,15.151,8.802c7.695,4.298,15.496,8.407,23.168,12.746c1.286,0.728,2.172,2.188,3.193,3.354
		c1.298,1.481,3.201,1.762,4.235,0.188c2.798-4.259,7.548-5.613,11.535-8.053c5.645-3.455,11.469-6.621,17.254-9.843
		c4.531-2.523,9.385-4.566,13.594-7.535c3.192-2.252,5.598-0.852,8.308,0.178c1.003,0.381,1.885,1.08,3.452,2.005
		c-1.826,1.205-3.337,2.367-4.991,3.265c-7.863,4.266-15.779,8.433-23.649,12.687c-8.758,4.734-17.487,9.521-26.223,14.296
		c-0.432,0.236-0.808,0.576-1.186,0.851C75.613,108.504,56.874,98.289,37.6,87.783z" stroke="#5f6368" stroke-width="10" />
	<path d="M123.98,138.435c-4.558,0.577-8.184,0.2-11.675-1.859c-5.49-3.238-11.109-6.26-16.718-9.29
		c-1.792-0.968-3.241,0.371-4.692,1.152c-5.793,3.119-11.436,6.558-17.404,9.29c-2.366,1.083-5.434,0.632-8.183,0.879
		c-0.01-0.218-0.019-0.436-0.029-0.654c6.02-3.376,12.031-6.766,18.065-10.115c1.367-0.758,2.839-1.326,4.21-2.076
		c0.521-0.285,1.312-0.921,1.246-1.249c-0.114-0.568-0.707-1.191-1.262-1.495c-7.061-3.883-14.15-7.716-21.235-11.558
		c-9.248-5.015-18.503-10.019-27.743-15.048c-1.034-0.563-2.138-1.121-2.943-1.943c-0.573-0.584-0.698-1.607-1.023-2.434
		c0.958-0.226,2.112-0.908,2.84-0.596c2.697,1.156,5.274,2.603,7.859,4.008c4.423,2.405,8.817,4.865,13.226,7.296
		c7.643,4.215,15.284,8.434,22.935,12.633c3.567,1.958,7.079,4.044,10.778,5.712c1.203,0.542,3.165,0.414,4.362-0.209
		c8.338-4.339,16.582-8.86,24.825-13.379c6.68-3.661,13.31-7.413,19.977-11.098c2.582-1.427,5.219-2.755,7.797-4.188
		c0.625-0.348,1.054-1.067,1.689-1.373c0.666-0.32,1.728-0.718,2.161-0.42c0.753,0.519,1.481,1.502,1.599,2.375
		c0.088,0.649-0.634,1.749-1.289,2.099c-3.381,1.807-6.89,3.372-10.288,5.147c-3.545,1.852-7.013,3.853-10.52,5.779
		c-7.042,3.869-14.08,7.746-21.135,11.592c-3.513,1.915-7.071,3.746-10.575,5.677c-0.495,0.273-1.123,0.914-1.1,1.353
		c0.025,0.456,0.692,1.005,1.203,1.289C108.436,129.894,115.949,134.017,123.98,138.435z" stroke="#5f6368" stroke-width="10" />
</svg>
