<?xml version="1.0" encoding="utf-8"?>
<!-- Generator: Adobe Illustrator 17.0.0, SVG Export Plug-In . SVG Version: 6.00 Build 0)  -->
<!DOCTYPE svg PUBLIC "-//W3C//DTD SVG 1.1//EN" "http://www.w3.org/Graphics/SVG/1.1/DTD/svg11.dtd">
<svg version="1.1" id="Layer_1" xmlns="http://www.w3.org/2000/svg" xmlns:xlink="http://www.w3.org/1999/xlink" x="0px" y="0px"
	 width="560px" height="560px" viewBox="0 0 560 560" enable-background="new 0 0 560 560" xml:space="preserve">
<path d="M280.234,5.229c24.405-0.054,48.397,3.088,71.98,9.351c2.502,0.664,5.105,1.17,7.413,2.27
	c1.965,0.937,4.104,0.783,6.051,1.696c2.196,1.029,4.612,1.582,6.916,2.388c2.311,0.808,4.61,1.65,6.899,2.521
	c2.29,0.871,4.57,1.771,6.835,2.705c2.265,0.933,4.522,1.888,6.755,2.892c22.83,10.267,43.94,23.232,63.325,39.156
	c25.89,21.268,47.289,46.271,64.169,75.156c16.839,28.815,28.122,59.694,33.667,92.615c7.459,44.285,4.621,87.908-8.8,130.799
	c-6.878,21.982-16.368,42.797-28.564,62.324c-4.78,7.655-9.866,15.164-15.38,22.302c-5.651,7.314-11.898,14.181-18.073,21.074
	c-4.131,4.612-8.311,9.252-12.966,13.31c-8.72,7.602-17.481,15.229-26.821,22.026c-9.371,6.82-19.192,13.136-29.302,18.804
	c-27.4,15.361-56.723,25.491-87.73,30.65c-30.843,5.131-61.679,5.132-92.544,0.014c-31.105-5.157-60.399-15.449-88.013-30.581
	c-18.236-9.994-35.148-21.898-50.547-35.884c-5.789-5.258-11.47-10.659-16.891-16.293c-4.97-5.165-9.662-10.618-14.211-16.162
	c-2.725-3.32-4.548-7.426-7.46-10.538c-7.803-8.337-13.27-18.199-18.836-27.966c-15.637-27.439-26.147-56.773-31.659-87.88
	c-3.824-21.585-5.087-43.33-3.797-65.207c2.061-34.943,10.371-68.336,25.058-100.126c9.933-21.5,22.386-41.422,37.454-59.698
	c26.882-32.605,59.378-58.01,97.71-75.84C200.226,13.729,239.277,5.193,280.234,5.229z M280.62,544.911
	c144.243-0.053,261.242-117.221,261.407-261.779C542.192,138.539,424.013,20.574,278.226,21.34
	C134.715,22.095,13.295,142.132,18.521,292.738C23.28,429.886,136.443,545.043,280.62,544.911z"/>
<path d="M526.183,280.845c0.171,30.993-5.026,61.009-16.119,90.009c-7.353,19.223-16.879,37.262-28.723,54.067
	c-11.112,15.766-23.932,30.026-38.394,42.796c-21.354,18.855-45.242,33.601-71.715,44.145
	c-33.792,13.459-68.854,19.085-105.157,17.065c-44.673-2.485-85.624-16.232-122.855-40.951
	c-24.408-16.205-45.16-36.293-62.448-59.968c-17.717-24.264-30.531-50.898-38.417-79.854c-9.071-33.308-11.025-67.086-6.011-101.259
	c2.788-19.003,7.687-37.44,14.944-55.22c2.225-5.453,4.778-10.785,7.422-16.051c3.435-6.841,6.83-13.729,10.764-20.284
	c3.978-6.629,8.326-13.077,12.972-19.258c28.744-38.24,65.417-66.077,110.147-83.135c7.501-2.86,15.176-5.355,22.923-7.458
	c19.204-5.211,38.769-7.992,58.706-8.398c20.104-0.409,39.95,1.385,59.556,5.789c19.599,4.403,38.357,11.116,56.354,20.102
	c31.538,15.747,58.279,37.408,80.655,64.552c8.868,10.759,16.703,22.242,23.549,34.387c14.579,25.863,24.416,53.429,28.803,82.795
	c1.783,11.935,2.475,24.032,3.664,36.055C526.595,280.796,526.389,280.821,526.183,280.845z M279.929,523.27
	c132.095,0.162,239.131-106.88,240.199-238.075c1.085-133.38-106.938-242.455-240.105-242.08
	c-67.033,0.189-124.237,24.72-171.722,72.071c-45.215,45.088-69.6,103.667-68.195,175.215
	C42.613,418.056,148.383,523.321,279.929,523.27z"/>
<g>
	<path d="M297.942,318.415c0,1.166,0.001,1.996,0,2.825c-0.013,19.056,0.338,38.122-0.161,57.165
		c-0.366,13.97-3.144,27.631-8.737,40.574c-0.954,2.208-1.868,4.505-4.715,6.106c0-1.949-0.254-3.498,0.039-4.935
		c3.457-17.006,3.613-34.254,3.736-51.488c0.133-18.665-0.034-37.332,0.001-55.998c0.003-1.667-0.51-2.745-1.773-3.811
		c-17.399-14.684-34.766-29.405-52.116-44.148c-4.149-3.525-8.205-7.16-12.675-10.498c1.088,2.119,2.215,4.218,3.256,6.36
		c5.464,11.241,8.542,22.973,6.711,35.556c-1.01,6.938-3.727,13.007-8.949,18.092c-3.907,3.804-8.335,5.913-13.443,7.184
		c-3.183,0.792-6.298,1.861-9.43,2.847c-1.328,0.418-2.527,0.788-3.654-0.554c-0.343-0.409-1.272-0.325-1.994-0.235
		c0.644,0.327,1.289,0.653,2.491,1.262c-4.615,1.668-8.71,3.152-12.807,4.627c-11.945,4.3-22.926,10.253-32.33,18.895
		c-0.683,0.627-1.406,1.35-1.756,2.178c-5.58,13.221-8.307,26.909-5.688,41.207c3.152,17.204,15.226,28.32,32.806,30.838
		c14.571,2.087,28.488-0.709,42.126-5.511c13.939-4.908,27.031-11.552,39.065-20.129c3.037-2.164,5.571-5.094,8.105-7.882
		c1.662-1.829,2.227-4.277,1.523-6.688c-4.385-15.013-8.653-30.066-13.422-44.957c-1.392-4.347-1.776-8.195-0.008-12.362
		c0.604-1.423,0.643-3.076,1.068-4.588c0.259-0.92,0.762-1.771,1.155-2.653c0.796,0.571,1.787,0.992,2.356,1.736
		c4.03,5.273,7.966,10.618,11.949,15.928c1.328,1.771,2.792,3.447,4.018,5.284c0.509,0.762,0.559,1.831,0.817,2.76
		c-1.036,0.092-2.174,0.501-3.084,0.205c-1.549-0.504-2.954-1.453-4.421-2.213c-0.801-0.415-1.604-0.825-2.972-1.528
		c0.201,1.562,0.227,2.55,0.465,3.483c2.268,8.877,4.424,17.786,6.9,26.606c3.937,14.026-0.022,25.911-9.653,36.184
		c-3.332,3.554-7.105,6.757-10.991,9.706c-2.63,1.996-4.507,4.076-5.322,7.38c-1.972,7.988-4.189,15.941-3.891,24.247
		c0.108,3.019,0.653,6.189,1.782,8.972c2.415,5.953,8.031,7.986,13.87,5.374c5.519-2.469,9.873-6.568,14.022-10.791
		c7.645-7.781,15.071-15.778,22.594-23.679c14.039-14.745,31.103-24.377,50.556-30.038c4.773-1.389,9.407-3.255,14.173-4.67
		c1.993-0.592,2.28-1.604,2.082-3.428c-1.051-9.69-0.611-19.33,2.5-28.596c1.644-4.897,3.949-9.651,6.57-14.109
		c1.454-2.473,3.932-4.56,6.368-6.196c5.652-3.796,12.075-1.343,15.445,5.694c2.734,5.709,3.168,11.901,3.068,18.072
		c-0.184,11.358-3.367,21.727-11.552,29.98c-2.804,2.827-6.215,5.053-9.437,7.624c1.69,5.85,7.327,10.169,14.377,10.844
		c8.633,0.827,15.803-2.049,21.726-8.34c3.166-3.363,4.023-7.424,3.976-11.806c-0.502-46.422-1.008-92.843-1.534-139.265
		c-0.335-29.571-0.696-59.142-1.089-88.712c-0.02-1.475-0.238-3.026-0.749-4.399c-1.22-3.277-1.284-6.457,0.047-9.695
		c1.23-2.991,2.32-6.042,3.64-8.991c0.339-0.757,1.384-1.776,1.978-1.698c0.801,0.104,1.835,1.011,2.156,1.817
		c4.58,11.526,9.098,23.078,13.501,34.673c0.497,1.31,1.537,3.261-0.382,4.266c-1.845,0.966-3.127-0.62-4.139-1.897
		c-1.418-1.789-2.594-3.77-3.941-5.618c-0.63-0.865-1.421-1.613-2.138-2.414c-0.23,0.054-0.461,0.109-0.691,0.163
		c0,0.954-0.025,1.91,0.004,2.863c0.647,21.343,1.388,42.684,1.934,64.03c0.956,37.392,1.984,74.783,2.595,112.181
		c0.275,16.844-0.633,33.662-4.891,50.134c-3.391,13.116-11.6,22.094-23.538,27.787c-11.783,5.62-22.068,2.148-28.175-9.397
		c-2.05-3.875-3.437-8.102-5.194-12.328c-4.398,1.526-8.929,3.107-13.466,4.669c-11.137,3.834-22.202,7.794-32.467,13.738
		c-8.059,4.666-14.489,11.132-20.947,17.67c-8.383,8.487-16.904,16.845-25.581,25.03c-2.486,2.345-5.638,4.034-8.619,5.796
		c-8.025,4.742-17.352-0.752-21.073-7.188c-4.342-7.509-5.145-15.731-4.356-24.112c0.502-5.332,1.688-10.601,2.57-15.897
		c0.1-0.599,0.212-1.196,0.371-2.087c-3.216,1.647-6.135,3.167-9.075,4.642c-11.563,5.802-23.766,9.55-36.651,10.678
		c-11.953,1.047-23.66-0.001-34.705-5.349c-15.857-7.677-24.051-20.122-24.069-37.851c-0.013-12.894,2.902-25.216,7.074-37.308
		c0.251-0.727,0.504-1.454,0.408-2.464c-1.966,1.951-3.833,4.014-5.918,5.827c-3.75,3.26-7.382,6.744-11.503,9.47
		c-11.751,7.771-20.391,1.302-24.643-7.647c-3.796-7.987-3.427-16.445-1.963-24.885c1.966-11.33,6.346-21.809,11.625-31.947
		c0.323-0.62,0.663-1.23,1.025-1.902c-10.672-7.795-11.036-18.794-9.3-30.187c2.222-14.587,8.921-27.409,16.696-39.713
		c2.152-3.406,4.498-6.69,6.789-10.006c1.598-2.313,1.624-2.294,4.872-1.879c-0.835,1.363-1.568,2.598-2.338,3.809
		c-7.405,11.647-13.717,23.83-18.022,36.982c-2.126,6.494-3.755,13.081-2.638,20.011c0.964,5.985,4.624,9.567,9.615,8.994
		c2.303-0.264,4.854-0.808,6.708-2.079c5.06-3.47,10.134-7.043,14.616-11.207c10.771-10.005,21.083-20.503,31.832-30.533
		c5.009-4.674,10.6-8.723,16.093-13.19c-0.274-0.327-0.609-0.827-1.04-1.224c-13.786-12.699-27.814-25.118-42.985-36.163
		c-5.017-3.652-7.469-8.423-7.416-14.558c0.014-1.58,0.094-3.16,0.124-4.74c0.129-6.971,3.365-12.157,9.418-15.374
		c10.533-5.598,21.189-10.964,31.794-16.427c0.478-0.246,0.96-0.485,1.308-0.66c-1.909-2.372-3.716-4.741-5.656-6.994
		c-1.851-2.149-2.142-4.543-1.317-7.099c0.8-2.477,1.721-4.92,2.708-7.33c1.23-3.004,3.576-4.837,6.44-6.306
		c20.063-10.287,40.835-18.95,61.788-27.206c7.057-2.781,14.086-5.637,21.205-8.247c1.45-0.532,4.048-0.791,4.72,0.005
		c1.423,1.685-0.091,3.771-1.476,4.918c-2.019,1.673-4.332,3.177-6.763,4.138c-21.234,8.39-42.772,16.025-63.465,25.749
		c-6.219,2.922-12.44,5.839-18.649,8.782c-3.196,1.515-4.006,3.365-1.661,5.865c3.459,3.689,4.567,7.741,3.609,12.777
		c0.802-0.194,1.328-0.236,1.779-0.443c26.239-12.085,53.265-22.101,80.959-30.251c11.425-3.362,23.067-6.023,34.688-8.662
		c3.321-0.754,6.934-0.6,10.378-0.362c9.479,0.654,14.377,6.803,13.579,16.326c-0.875,10.452-5.876,18.8-13.287,25.722
		c-6.286,5.873-12.979,11.32-19.617,16.804c-10.659,8.807-20.359,18.478-27.994,30.088c-0.498,0.758-1.104,1.446-1.659,2.166
		c-0.243-0.126-0.485-0.251-0.728-0.377c1.235-2.894,2.277-5.889,3.738-8.663c6.304-11.975,15.164-21.981,24.983-31.099
		c7.289-6.769,15.012-13.081,22.673-19.438c4.446-3.689,4.712-6.864,0.298-10.663c-3.722-3.202-8.083-4.847-13.035-4.884
		c-8.611-0.064-16.979,1.624-25.293,3.575c-26.851,6.3-52.701,15.644-77.942,26.596c-15.418,6.69-30.424,14.332-45.594,21.59
		c-1.269,0.607-2.449,1.458-3.55,2.344c-3.127,2.517-3.101,3.405,0.159,5.631c4.243,2.897,8.592,5.644,12.781,8.617
		c15.597,11.072,31.169,22.179,46.68,33.371c1.519,1.096,2.588,1.192,4.214,0.4c7.564-3.682,15.519-6.259,23.745-8.009
		c0.671-0.143,1.329-0.348,2.043-0.537c-3.19-6.367-3.637-13.076-3.943-19.791c-0.375-8.213-0.587-16.434-0.968-24.647
		c-0.083-1.799-0.275-3.705-0.947-5.344c-1.83-4.465-1.249-8.791,0.151-13.165c0.335-1.048,0.459-2.178,0.894-3.178
		c0.659-1.515,1.506-2.949,2.41-4.681c3.656,6.363,7.014,12.232,10.399,18.086c1.066,1.844,2.293,3.601,3.271,5.489
		c0.492,0.95,0.764,2.091,0.832,3.165c0.128,2.01-0.813,2.616-2.658,1.783c-1.437-0.649-2.77-1.535-4.221-2.145
		c-2.755-1.159-3.916-0.39-3.702,2.643c0.3,4.256,0.647,8.527,1.331,12.734c0.86,5.29,1.577,10.69,3.272,15.734
		c2.098,6.243,7.377,9.869,13.045,12.778c2.107,1.081,4.315,1.963,6.438,3.015c3.571,1.77,4.664,3.522,4.052,7.395
		c-0.711,4.507-1.756,8.962-2.718,13.746c-13.488-8.295-27.586-9.09-42.904-4.704c23.533,18.668,46.614,36.976,70.254,55.728
		c0-1.671,0.003-2.656,0-3.641c-0.137-33.77-0.289-67.541-0.359-101.311c-0.003-1.486,0.496-3.109,1.199-4.436
		c2.286-4.313,4.775-8.518,7.235-12.851c2.813,5.207,13.219,41.915,12.395,44.559c-1.164-0.773-2.324-1.364-3.257-2.205
		c-1.583-1.427-2.946-3.099-4.543-4.508c-1.68-1.482-2.986-1.018-3.236,1.173c-0.213,1.871-0.092,3.782-0.081,5.675
		c0.116,21.273,0.24,42.546,0.361,63.819c0.038,6.643,0.054,13.286,0.135,19.928c0.008,0.64,0.215,1.551,0.662,1.871
		c5.308,3.802,10.025,8.515,16.442,10.621c8.37,2.747,18.789-0.64,23.891-7.841c1.741-2.457,2.621-5.115,2.543-8.201
		c-0.841-33.205-1.64-66.411-2.4-99.618c-0.222-9.706-0.218-19.417-0.435-29.124c-0.354-15.88-0.759-31.759-1.259-47.635
		c-0.081-2.582-0.562-5.197-1.216-7.703c-0.977-3.749-0.36-7.219,1.238-10.593c1.033-2.182,2.217-4.293,3.653-7.048
		c0.908,1.396,1.622,2.195,2.005,3.129c3.988,9.719,7.973,19.441,11.833,29.211c0.77,1.949,1.182,4.088,1.41,6.177
		c0.091,0.832-0.562,2.196-1.253,2.523c-0.582,0.275-1.91-0.389-2.556-1.006c-1.934-1.849-3.695-3.879-5.523-5.838
		c-0.242,0.111-0.485,0.221-0.727,0.332c0.254,9.177,0.708,18.354,0.705,27.532c-0.003,9.141,1.043,18.29,0.261,27.368
		c0.248,0.986,0.677,1.964,0.716,2.958c0.262,6.778,0.424,13.56,0.653,20.34c0.452,13.362,0.987,26.721,1.373,40.084
		c0.356,12.322,0.895,24.653,0.735,36.973c-0.142,10.927-2.603,21.478-7.769,31.249c-5.123,9.689-13.527,13.522-24.098,13.207
		c-6.777-0.202-13.034-2.292-18.803-5.85C299.387,319.162,298.838,318.899,297.942,318.415z M196.565,244.701
		c-4.577,3.595-9.191,6.824-13.348,10.56c-11.875,10.672-23.527,21.592-35.342,32.332c-6.668,6.061-13.354,12.137-21.393,16.415
		c-3.026,1.61-6.186,2.735-9.757,2.321c-0.591-0.069-1.642,0.782-1.911,1.44c-3.17,7.745-6.517,15.436-9.232,23.342
		c-2.257,6.573-3.7,13.412-2.745,20.501c0.772,5.736,4.862,10.453,9.919,10.893c3.748,0.326,7.327-0.96,10.227-3.157
		c6.407-4.855,12.725-9.862,18.736-15.194c5.725-5.078,10.651-11.097,16.578-15.9c9.692-7.855,21.081-12.617,33.026-16.074
		c6.509-1.884,12.976-3.916,19.454-5.903c3.45-1.058,6.911-2.088,10.32-3.267c4.119-1.424,6.54-4.5,6.309-8.766
		c-0.205-3.794-0.836-7.763-2.254-11.259C219.046,267.923,208.043,256.419,196.565,244.701z M370.196,388.747
		c4.52-2.408,8.822-4.372,12.78-6.879c7.683-4.867,9.05-12.24,3.812-19.655c-2.334-3.305-5.257-6.338-9.702-5.563
		c-4.422,0.771-6.66,4.344-7.792,8.395C367.119,372.821,368.731,380.488,370.196,388.747z"/>
	<path d="M386.059,236.579c2.072-2.198,4.186-4.359,6.167-6.637c0.265-0.304-0.003-1.268-0.272-1.801
		c-0.708-1.407-1.609-2.716-2.333-4.116c-4.044-7.826,3.597-15.056,9.647-15.31c2.772-0.116,4.361,1.144,4.911,4.063
		c0.652,3.462-0.155,6.753-1.453,9.948c-1.02,2.512-1.032,2.507,1.107,4.445c-0.982,2.352-2,4.79-3.105,7.436
		c-1.348-0.567-2.486-1.046-3.266-1.373c-3.697,3.467-7.307,6.747-10.754,10.191c-0.573,0.572-0.641,1.867-0.594,2.811
		c0.679,13.766-0.541,27.326-4.53,40.553c-1.021,3.386-2.471,6.652-3.874,9.908c-0.577,1.34-1.55,2.509-2.699,3.665
		c1.785-16.176,0.647-32.302,0.905-48.877c-0.979,0.535-1.569,0.833-2.136,1.17c-5.158,3.069-10.258,6.242-15.508,9.145
		c-1.178,0.651-2.875,0.364-4.333,0.509c0.69-1.338,1.081-3.017,2.134-3.942c1.937-1.7,4.264-2.956,6.427-4.398
		c3.878-2.586,7.813-5.093,11.587-7.822c0.842-0.609,1.602-2.003,1.589-3.025c-0.479-35.971-1.045-71.941-1.635-107.911
		c-0.045-2.762-0.018-5.593-0.607-8.264c-1.366-6.2,1.176-11.466,3.514-16.808c0.34-0.776,1.223-1.314,1.855-1.962
		c0.588,0.687,1.444,1.279,1.725,2.074c3.581,10.123,7.086,20.273,10.593,30.423c0.593,1.716,1.319,3.431,1.565,5.204
		c0.15,1.077-0.503,2.265-0.794,3.403c-0.925-0.441-2.055-0.678-2.737-1.362c-1.864-1.866-3.539-3.92-5.289-5.9
		c-0.225,0.048-0.45,0.096-0.674,0.144c0.67,31.362,1.341,62.725,2.011,94.087C385.488,236.36,385.773,236.47,386.059,236.579z
		 M397.532,222.02c0.838-2.04,1.569-3.729,0.007-5.131c-0.4-0.359-2.185-0.041-2.402,0.412
		C394.069,219.53,396.226,220.347,397.532,222.02z"/>
	<path d="M447.556,174.711c0.95,3.079,1.563,5.428,2.394,7.697c4.045,11.043,8.182,22.053,12.172,33.116
		c0.36,0.997-0.103,2.291-0.183,3.448c-1.064-0.44-2.318-0.658-3.15-1.369c-1.552-1.327-2.82-2.982-4.292-4.412
		c-0.461-0.448-1.428-1.009-1.758-0.818c-0.553,0.32-1.035,1.179-1.096,1.852c-0.148,1.644-0.071,3.312-0.027,4.97
		c0.704,26.946,1.424,53.891,2.123,80.837c0.293,11.299,0.783,22.6,0.763,33.9c-0.029,16.722-2.616,33.046-8.914,48.646
		c-0.795,1.969-1.724,3.92-2.878,5.692c-0.511,0.785-1.737,1.105-2.638,1.637c-0.349-0.969-1.1-1.993-0.976-2.897
		c0.459-3.358,1.572-6.653,1.779-10.013c0.759-12.296,1.695-24.605,1.766-36.914c0.222-38.658,0.08-77.318,0.08-115.977
		c0-7.272,0.079-14.545-0.046-21.814c-0.036-2.091-0.421-4.25-1.07-6.24c-0.85-2.607-0.957-5.032,0.034-7.616
		c1.329-3.461,2.38-7.029,3.713-10.489C445.784,176.827,446.724,175.903,447.556,174.711z"/>
	<path d="M372.519,304.066c0.818,0.431,1.527,0.647,2.028,1.095c2.407,2.153,4.833,4.294,7.104,6.586
		c1.811,1.828,2.386,1.932,4.166-0.016c2.183-2.389,4.34-4.802,6.522-7.191c1.859-2.035,2.496-2.1,4.503-0.349
		c2.796,2.438,5.542,4.933,8.333,7.377c1.671,1.463,1.904,2.988,0.379,4.693c-2.526,2.823-5.069,5.632-7.551,8.492
		c-1.317,1.518-2.492,1.433-4.031,0.224c-2.852-2.241-5.809-4.355-8.794-6.418c-2.294-1.586-3.145-1.355-5.011,0.746
		c-1.623,1.827-3.276,3.635-5.029,5.334c-1.254,1.214-2.828,1.571-4.284,0.359c-2.726-2.27-5.466-4.543-8.004-7.015
		c-1.979-1.928-1.905-3.05-0.006-5.062c2.381-2.524,4.843-4.975,7.338-7.387C370.821,304.914,371.716,304.558,372.519,304.066z"/>
	<path d="M321.504,372.521c-0.141-0.186-0.208-0.343-0.326-0.419c-5.856-3.798-6.534-6.769-2.815-12.721
		c2.685-4.297,6.21-7.826,10.65-10.219c1.857-1.001,4.169-1.493,6.297-1.57c2.769-0.1,4.844,2.044,5.188,4.604
		c0.319,2.38-1.905,6.625-4.014,6.94c-0.948,0.141-2.236-0.782-3.102-1.531c-3.026-2.614-5.573-2.623-8.331,0.116
		c-1.424,1.414-1.531,2.991-0.298,4.426c2.109,2.456,4.727,4.28,8.078,4.381c3.146,0.094,6.303-0.133,9.455-0.249
		c0.866-0.032,1.726-0.207,2.592-0.257c3.249-0.188,5.265,0.748,5.718,2.623c0.445,1.843-1.485,4.472-4.35,5.193
		c-2.965,0.746-6.064,0.942-9.086,1.482c-7.111,1.27-13.989,3.188-20.205,7.077c-1.491,0.933-3.483,1.979-4.893,0.304
		c-0.351-0.417,1.104-2.817,2.164-3.867C316.501,376.58,319.061,374.609,321.504,372.521z"/>
	<path d="M201.778,350.833c1.037-1.331,1.893-2.869,3.143-3.955c5.185-4.507,10.554-8.801,15.733-13.314
		c8.809-7.677,17.537-15.448,26.265-23.218c1.038-0.924,1.864-2.086,2.897-3.26c-1.476-1.278-2.772-2.411-4.079-3.53
		c-1.778-1.522-2.407-3.453-2.063-5.733c0.608-4.026,2.346-7.537,5.099-10.49c2.491-2.672,4.742-2.263,6.234,1.017
		c1.683,3.703,1.591,7.565,0.562,11.365c-0.5,1.845-0.157,2.85,1.458,3.866c2.556,1.608,3.285,3.924,2.408,6.485
		c-0.733,2.14-2.12,2.668-3.99,1.435c-1.109-0.731-2.132-1.592-3.16-2.368c-2.363,3.283-4.324,6.8-7.033,9.591
		c-4.327,4.457-8.952,8.682-13.811,12.553c-7.84,6.244-15.943,12.16-24.011,18.112c-1.427,1.053-3.223,1.607-4.849,2.391
		C202.312,351.465,202.045,351.149,201.778,350.833z M252.147,299.98c0.27-0.105,0.54-0.21,0.811-0.315
		c-0.144-1.513-0.133-3.066-0.501-4.523c-0.174-0.689-0.987-1.499-1.669-1.69c-0.552-0.155-1.721,0.379-1.93,0.888
		c-0.267,0.65-0.084,1.749,0.335,2.358C250.022,297.901,251.146,298.898,252.147,299.98z"/>
	<path d="M362.542,450.831c-2.303-1.057-3.415-3.034-4.293-5.289c-0.968-2.484-3.303-3.19-4.712-1.114
		c-1.988,2.928-3.428,6.28-4.758,9.589c-1.357,3.377-2.28,6.928-3.429,10.391c-0.63,1.9-1.227,3.825-2.062,5.637
		c-0.287,0.623-1.249,0.936-1.965,1.433c-1.939-5.298-3.657-10.288-5.6-15.189c-1.068-2.693-3.209-4.405-6.157-4.752
		c-5.94-0.699-8.193-3.574-7.237-9.476c0.202-1.245,0.492-2.483,0.841-3.696c0.75-2.612,1.847-3.166,4.178-1.669
		c4.645,2.983,8.632,6.61,10.154,12.23c0.041,0.151,0.072,0.319,0.16,0.44c2.037,2.78,4.081,5.554,6.268,8.526
		c1.561-1.566,1.461-4.146,2.278-6.331c0.9-2.409,1.838-4.803,2.736-7.213c0.135-0.362,0.118-0.777,0.214-1.156
		c0.966-3.831,2.881-7.01,6.503-8.847c1.944-0.986,4.018-0.811,5.407,0.917c2.443,3.038,4.413,6.347,4.372,10.49
		c-0.022,2.233-0.364,4.238-2.426,5.532c-0.166-0.608-0.336-1.216-0.506-1.825c-0.156,0.065-0.312,0.129-0.469,0.194
		C362.206,450.046,362.374,450.439,362.542,450.831z"/>
	<path d="M181.087,389.004c-0.188,4.466-1.269,8.63-4.837,11.737c-1.804,1.571-4.2,1.292-5.205-0.932
		c-1.372-3.036-2.662-6.315-2.972-9.585c-0.766-8.08,1.065-15.862,3.925-23.414c0.28-0.74,0.229-1.605,0.332-2.412
		c-0.816,0.08-1.747-0.066-2.429,0.279c-2.815,1.428-5.557,3.001-8.321,4.529c-0.761,0.421-1.457,1.024-2.267,1.272
		c-1.037,0.318-2.755,0.868-3.13,0.427c-1.137-1.339-0.42-2.915,0.801-3.943c1.564-1.316,3.238-2.541,4.999-3.576
		c10.422-6.123,20.866-12.21,31.364-18.202c0.888-0.507,2.223-0.229,3.351-0.316c-0.209,1.393-0.2,2.874-0.709,4.147
		c-0.302,0.755-1.383,1.245-2.181,1.745c-1.204,0.754-2.454,1.438-3.708,2.108c-13.262,7.089-13.362,6.574-16.818,24.192
		c-0.602,3.07-0.531,6.295-0.541,9.449c-0.005,1.548,0.356,3.151,0.859,4.625c0.299,0.876,1.174,2.141,1.83,2.166
		c0.875,0.033,1.931-0.83,2.651-1.562c0.898-0.913,1.534-2.085,2.282-3.144C180.604,388.73,180.845,388.867,181.087,389.004z"/>
	<path d="M130.542,208.586c0.487,0.354,0.926,0.675,1.366,0.994c3.015,2.181,3.651,4.876,1.564,7.929
		c-0.406,0.594-1.973,0.849-2.8,0.596c-1.314-0.403-2.455-1.366-3.389-1.925c-3.764,4.341-7.238,8.853-11.237,12.839
		c-6.028,6.007-13.232,10.5-20.742,14.436c-1.129,0.592-2.732,0.28-4.115,0.386c0.728-1.109,1.221-2.543,2.224-3.275
		c5.612-4.089,11.66-7.638,16.947-12.098c4.728-3.988,8.668-8.912,12.943-13.435c0.968-1.024,1.055-1.912-0.187-2.949
		c-2.129-1.778-2.56-4.222-2.282-6.883c0.427-4.092,1.51-7.92,4.33-11.053c2.722-3.024,5.753-2.534,6.497,1.43
		c0.59,3.145,0.043,6.521-0.153,9.785C131.445,206.428,130.894,207.463,130.542,208.586z M127.802,207.083
		c0.286-2.453,0.765-4.372,0.661-6.258c-0.116-2.094-1.865-2.649-3.542-1.352c-1.977,1.529-2.046,4.011-0.104,5.611
		C125.527,205.669,126.349,206.119,127.802,207.083z"/>
	<path d="M219.932,375.818c-0.556,1.177-0.883,2.265-1.514,3.131c-1.996,2.739-4.094,5.406-6.179,8.08
		c-1.069,1.371-2.294,0.914-3.281-0.011c-3.338-3.129-6.602-6.337-9.89-9.52c-1.215-1.176-1.661-2.623-0.744-4.07
		c2.359-3.722,4.812-7.389,7.363-10.981c0.245-0.345,1.737-0.333,2.148,0.05c3.576,3.332,7.086,6.741,10.498,10.242
		C219.102,373.525,219.405,374.764,219.932,375.818z"/>
	<path d="M204.902,176.041c0.024,1.067,0.214,2.161,0.045,3.196c-1.408,8.632-2.874,17.255-4.348,25.876
		c-0.165,0.964-0.483,1.901-0.73,2.851c-0.238,0.056-0.476,0.112-0.715,0.167c-0.453-0.802-1.001-1.566-1.341-2.414
		c-1.706-4.239-3.262-8.541-5.062-12.738c-1.097-2.559-3.338-4.034-5.91-4.929c-4.964-1.727-6.476-3.652-6.128-7.953
		c0.207-2.561,1.922-4.025,4.475-3.676c3.705,0.507,6.225,2.851,8.416,5.647c2.026,2.586,4.045,5.177,6.276,8.033
		c1.063-5.002,2.065-9.715,3.14-14.768c0.83,0.377,1.419,0.645,2.006,0.912C204.987,176.174,204.947,176.105,204.902,176.041z"/>
	<path d="M474.461,285.385c-0.746,3.283-1.219,6.66-2.308,9.825c-1.379,4.01-4.769,4.671-8.039,1.894
		c-2.511-2.132-3.337-5.084-3.174-8.117c0.214-3.998,0.403-8.146,1.608-11.908c2.184-6.817,5.065-13.415,7.77-20.058
		c0.455-1.119,1.343-2.188,2.301-2.932c0.675-0.524,1.808-0.458,2.736-0.655c-0.082,0.884,0.056,1.867-0.286,2.636
		c-1.349,3.025-3.052,5.904-4.249,8.983c-2.295,5.902-4.283,11.939-3.932,18.393c0.09,1.649,0.671,3.433,1.538,4.839
		c1.232,1.999,2.817,1.828,4.047-0.18c0.554-0.903,0.924-1.919,1.378-2.884C474.054,285.276,474.257,285.331,474.461,285.385z"/>
	<path d="M328.564,242.439c-0.736,1.632-1.297,3.373-2.239,4.876c-3.626,5.788-5.813,12.084-6.713,18.807
		c-0.266,1.988-0.167,4.122,0.281,6.07c0.226,0.981,1.494,2.105,2.507,2.384c0.658,0.181,1.855-0.91,2.535-1.676
		c0.806-0.907,1.315-2.077,2.21-3.557c0.391,0.909,0.702,1.338,0.752,1.795c0.447,4.076-0.778,7.707-3.424,10.734
		c-2.914,3.335-7.567,2.343-9.369-1.844c-1.762-4.093-1.565-8.351-0.828-12.585c1.523-8.751,5.315-16.474,10.975-23.286
		c0.708-0.852,1.643-1.514,2.472-2.264C328.003,242.075,328.284,242.257,328.564,242.439z"/>
	<path d="M153.007,222.195c-0.429,1.227-0.845,2.459-1.291,3.68c-2.104,5.766-4.405,11.471-6.219,17.327
		c-0.612,1.975-0.324,4.406,0.149,6.493c0.549,2.423,2.28,2.742,3.986,0.929c1.22-1.296,2.201-2.818,3.709-4.787
		c0.57,3.651-0.346,6.479-1.226,9.254c-0.47,1.481-1.28,2.898-2.154,4.197c-2.241,3.333-6.84,3.139-8.796-0.392
		c-2.202-3.974-1.83-8.275-1.056-12.494c1.442-7.866,4.53-15.096,9.071-21.674c0.809-1.172,2.021-2.067,3.047-3.09
		C152.487,221.825,152.747,222.01,153.007,222.195z"/>
	<path d="M350.427,334.088c-4.69-2.686-9.328-0.7-13.973,0.632c-0.194-0.203-0.387-0.405-0.581-0.608
		c1.156-1.535,2.113-3.286,3.502-4.567c6.483-5.975,13.641-3.564,20.641-1.259c2.432,0.801,2.729,2.654,1.068,4.687
		c-4.93,6.036-11.489,8.598-19.127,8.706c-0.68,0.01-1.431-0.204-2.033-0.528c-1.372-0.739-1.446-1.773,0.007-2.382
		c1.432-0.601,3.053-0.736,4.534-1.24c2.093-0.713,4.135-1.578,6.199-2.378C350.585,334.797,350.506,334.442,350.427,334.088z"/>
	<path d="M309.8,82.41c3.338,0.553,6.689,1.036,10.008,1.686c1.76,0.344,2.314,1.584,1.016,2.906
		c-4.133,4.21-8.003,8.844-13.794,10.892c-2.115,0.748-4.436,0.965-6.685,1.244c-0.544,0.068-1.177-0.578-1.77-0.895
		c0.374-0.618,0.605-1.549,1.149-1.798c2.066-0.948,4.311-1.524,6.333-2.547c1.125-0.569,1.943-1.747,2.899-2.651
		c-1.234-0.533-2.506-1.578-3.696-1.493c-2.529,0.182-5.006,1.012-7.525,1.455c-1.302,0.229-2.65,0.201-3.977,0.289
		c0.733-1.016,1.318-2.197,2.226-3.021C299.876,84.946,304.178,82.266,309.8,82.41z"/>
	<path d="M276.257,129.667c-0.599,1.125-1.125,2.298-1.81,3.368c-3.886,6.072-7.35,12.345-8.912,19.462
		c-0.311,1.416-0.181,2.967-0.015,4.429c0.066,0.58,0.707,1.398,1.23,1.528c0.439,0.109,1.183-0.534,1.622-1.003
		c0.875-0.935,1.634-1.98,2.692-2.831c0.096,4.17-0.662,8.046-3.565,11.104c-2.265,2.385-5.95,1.838-6.901-1.299
		c-0.858-2.832-1.234-6.106-0.737-8.998c1.547-8.998,6.256-16.602,11.766-23.698c0.941-1.211,2.551-1.903,3.851-2.835
		C275.739,129.151,275.998,129.409,276.257,129.667z"/>
	<path d="M280.111,229.478c-0.468,1.258-0.904,2.528-1.409,3.771c-2.281,5.614-4.633,11.201-6.83,16.848
		c-0.439,1.129-0.427,2.479-0.42,3.726c0.009,1.663,0.814,3.155,2.541,3.141c1.201-0.009,2.596-0.759,3.531-1.595
		c0.872-0.78,1.252-2.111,2.113-3.682c0.221,0.98,0.44,1.458,0.415,1.922c-0.19,3.463-1.18,6.685-3.268,9.477
		c-1.286,1.719-2.947,2.843-5.287,2.406c-2.259-0.422-3.872-1.791-4.253-3.929c-0.475-2.67-0.852-5.498-0.487-8.15
		c1.118-8.136,4.56-15.374,9.56-21.852c0.801-1.037,2.022-1.751,3.048-2.614C279.614,229.123,279.863,229.3,280.111,229.478z"/>
	<path d="M246.356,373.518c-0.633,4.244-1.713,8.364-4.92,11.529c-1.622,1.601-3.248,0.618-4.5-0.806
		c-3.672-4.176-4.872-9.127-4.305-14.551c0.667-6.379,2.82-12.297,5.893-17.883c0.578-1.051,1.563-1.878,2.361-2.808
		c0.252,0.083,0.504,0.166,0.756,0.249c-0.16,1.15-0.24,2.318-0.494,3.447c-1.034,4.606-2.499,9.155-3.05,13.814
		c-0.338,2.856,0.358,5.975,1.205,8.791c0.85,2.827,2.49,2.897,4.411,0.591c0.728-0.874,1.407-1.789,2.108-2.685
		C245.998,373.31,246.177,373.414,246.356,373.518z"/>
	<path d="M327.488,176.248c0.104,0.811,0.476,1.702,0.264,2.42c-0.82,2.768-1.58,5.602-2.843,8.176
		c-0.956,1.95-2.822,3.249-5.283,2.766c-2.413-0.474-3.796-2.21-3.973-4.453c-0.265-3.353-0.427-6.791,0.017-10.106
		c0.964-7.205,3.644-13.872,7.439-20.07c0.536-0.876,1.305-1.61,1.966-2.409c0.23,0.118,0.46,0.237,0.69,0.355
		c-0.459,1.543-0.973,3.073-1.366,4.633c-1.44,5.722-2.908,11.438-4.198,17.195c-0.28,1.25-0.089,2.729,0.311,3.964
		c0.268,0.827,1.227,1.863,1.993,1.969c0.712,0.099,1.751-0.767,2.332-1.468c0.758-0.916,1.207-2.088,1.789-3.15
		C326.913,176.128,327.201,176.188,327.488,176.248z"/>
	<path d="M362.464,153.579c-0.363,1.518-0.573,3.094-1.118,4.544c-2.067,5.505-3.292,11.155-3.257,17.049
		c0.004,0.699,0.063,1.439,0.295,2.088c0.879,2.461,3.013,2.854,4.703,0.859c0.705-0.832,1.246-1.803,2.146-3.131
		c0.165,4.863-1.673,8.47-4.634,11.527c-1.244,1.284-3.633,0.769-4.909-0.531c-2.267-2.311-3.168-4.954-2.571-8.183
		c0.768-4.155,1.094-8.414,2.167-12.482c0.869-3.297,2.485-6.411,3.932-9.532c0.462-0.997,1.441-1.755,2.184-2.622
		C361.756,153.304,362.11,153.441,362.464,153.579z"/>
	<path d="M294.711,478.289c0.447-0.767,0.848-1.565,1.348-2.294c2.366-3.453,4.761-6.885,7.141-10.328
		c0.224-0.325,0.441-0.659,0.621-1.009c0.713-1.389,1.888-2.892,0.567-4.347c-1.41-1.553-3.017-0.465-4.558,0.175
		c-0.794,0.33-2.06,0.722-2.52,0.351c-0.551-0.444-0.705-1.696-0.62-2.558c0.439-4.468,4.351-8.103,8.112-7.676
		c4.125,0.468,6.234,3.285,5.269,7.305c-1.262,5.259-4.063,9.761-7.491,13.837c-2.151,2.558-4.643,4.829-6.981,7.229
		C295.302,478.745,295.007,478.517,294.711,478.289z"/>
	<path d="M85.091,320.975c0.622-0.924,1.237-1.852,1.866-2.771c2.304-3.368,4.678-6.69,6.876-10.126
		c0.609-0.952,0.839-2.216,1-3.371c0.419-3.003-0.357-3.622-3.16-2.698c-1.814,0.599-2.957-0.383-2.628-2.257
		c0.468-2.662,4.652-6.289,7.316-6.279c2.203,0.008,2.959,1.517,3.215,3.378c0.65,4.719-0.351,9.23-2.789,13.177
		c-2.171,3.515-4.952,6.674-7.66,9.823c-0.795,0.925-2.257,1.276-3.413,1.891C85.506,321.487,85.298,321.231,85.091,320.975z"/>
	<path d="M115.068,207.652c-1.015,2.002-1.788,4.181-3.096,5.969c-2.567,3.506-6.637,2.882-7.956-1.269
		c-0.617-1.942-0.754-4.247-0.385-6.254c1.294-7.039,4.996-12.875,9.845-18.02c0.609-0.646,1.457-1.067,2.194-1.592
		c0.225,0.167,0.449,0.334,0.674,0.501c-0.596,1.065-1.058,2.237-1.81,3.178c-3.111,3.892-5.504,8.125-6.195,13.115
		c-0.222,1.604-0.158,3.341,0.215,4.913c0.535,2.257,1.848,2.576,3.622,1.121c0.782-0.641,1.487-1.376,2.226-2.069
		C114.624,207.381,114.846,207.517,115.068,207.652z"/>
	<path d="M118.326,407.222c0.219-1.163,0.21-2.434,0.698-3.47c1.715-3.637,3.615-7.187,5.417-10.784
		c1.701-3.395,0.594-5.185-3.181-4.993c-1.997,0.102-2.374-0.712-1.843-2.425c1.279-4.129,4.613-5.72,8.247-3.907
		c2.248,1.121,3.26,2.788,2.608,5.453c-0.631,2.579-1.469,5.213-2.785,7.495c-2.545,4.414-5.489,8.599-8.268,12.878
		C118.922,407.386,118.624,407.304,118.326,407.222z"/>
	<path d="M204.902,176.041c0.045,0.064,0.085,0.133,0.122,0.207c-1.279-1.226-1.639-2.521-0.732-4.218
		c0.878-1.643,1.22-3.621,2.289-5.095c0.689-0.951,2.214-1.593,3.454-1.778c1.788-0.267,3.054,0.973,3.345,2.665
		c0.462,2.69,0.755,5.429,0.823,8.155c0.02,0.802-0.858,2.177-1.507,2.297c-0.703,0.129-1.63-0.887-2.437-1.437
		c-0.181-0.124-0.284-0.374-0.401-0.579c-1.565-2.74-1.548-2.724-3.708-0.559C205.885,175.963,205.326,175.934,204.902,176.041z"/>
	<path d="M174.133,276.834c0.965,0.629,1.745,1.002,2.357,1.56c2.39,2.181,4.743,4.402,7.074,6.646
		c1.16,1.117,2.079,1.293,3.348-0.017c2.248-2.321,4.724-4.419,7.059-6.658c1.468-1.408,2.754-1.475,4.27,0.014
		c2.589,2.542,5.33,4.928,7.961,7.429c1.812,1.722,1.812,2.557-0.003,4.309c-2.385,2.301-4.83,4.541-7.254,6.801
		c-1.586,1.479-3.156,1.569-4.785,0.015c-1.884-1.798-3.886-3.476-5.715-5.327c-1.587-1.605-2.995-1.402-4.502,0.015
		c-2.357,2.216-4.761,4.385-7.085,6.635c-1.301,1.26-2.47,1.445-3.856,0.125c-2.915-2.776-5.879-5.5-8.84-8.226
		c-0.904-0.832-1.111-1.572-0.198-2.603c2.561-2.892,5.006-5.887,7.579-8.767C172.224,278.02,173.203,277.52,174.133,276.834z"/>
	<path d="M145.37,319.695c1.16,4.457-1.564,11.322-5.094,13.379c-2.146,1.251-4.352,0.834-6.112-1.217
		c-2.043-2.382-2.519-5.266-2.205-8.233c0.998-9.44,4.852-17.698,10.706-25.082c0.184-0.232,0.474-0.379,1.35-1.056
		c-0.472,1.52-0.667,2.427-1.027,3.263c-1.715,3.972-3.715,7.842-5.131,11.916c-0.86,2.474-0.941,5.245-1.167,7.9
		c-0.082,0.96,0.28,2.044,0.706,2.945c1.163,2.462,3.006,2.718,4.767,0.646C143.276,322.847,144.183,321.363,145.37,319.695z"/>
</g>
</svg>
